# xmcd CD database file
#
# Track frame offsets:
#	150
#	20843
#	33039
#	47948
#	60997
#	76681
#	94681
#	115485
#	130999
#	143013
#	169665
#
# Disc length: 2522 seconds
#
# Revision: 0
# Processed by: cddbd v1.5.2PL0 Copyright (c) Steve Scherf et al.
# Submitted via: CDex 1.51
#
DISCID=8809d80b
DTITLE=Viviane Kudo - Another Short-Time Home
DYEAR=2012
DGENRE=Jazz
TTITLE0=Calm under the Waves
TTITLE1=Mellow Down Easy
TTITLE2=Say It Now
TTITLE3=Whisper Sweet Nothings
TTITLE4=A 1000 Miles
TTITLE5=Dead in the World
TTITLE6=A Day for Us
TTITLE7=Still Running Aground
TTITLE8=The Grass below and above the Sky
TTITLE9=Out like the Sky Laterns
TTITLE10=Coming
EXTD=YEAR: 2012
EXTT0=
EXTT1=
EXTT2=
EXTT3=
EXTT4=
EXTT5=
EXTT6=
EXTT7=
EXTT8=
EXTT9=
EXTT10=
PLAYORDER=
